<?xml version="1.0" encoding="UTF-8"?>
<svg width="350px" height="82px" viewBox="0 0 350 82" version="1.1" xmlns="http://www.w3.org/2000/svg" xmlns:xlink="http://www.w3.org/1999/xlink">
    <!-- Generator: Sketch 49.2 (51160) - http://www.bohemiancoding.com/sketch -->
    <title>Logo FIG</title>
    <desc>Created with Sketch.</desc>
    <defs>
        <polygon id="path-1" points="0 0.116760811 78.9153834 0.116760811 78.9153834 79.2998824 0 79.2998824"></polygon>
        <polygon id="path-3" points="0 82.8833514 349.306709 82.8833514 349.306709 1.12162162 0 1.12162162"></polygon>
    </defs>
    <g id="Design---Desktop" stroke="none" stroke-width="1" fill="none" fill-rule="evenodd">
        <g id="Homepage---Desktop---Axe-1" transform="translate(-100.000000, -107.000000)">
            <g id="Header" transform="translate(0.000000, 60.000000)">
                <g id="Logo-FIG" transform="translate(100.000000, 46.000000)">
                    <path d="M0.652476038,40.8707703 C0.652476038,19.3816216 18.0171725,1.97741892 39.4409744,1.97741892 C60.8345847,1.97741892 78.1735623,19.3816216 78.1735623,40.8707703 C78.1735623,62.3554324 60.8345847,79.7484189 39.4409744,79.7484189 C18.0171725,79.7484189 0.652476038,62.3554324 0.652476038,40.8707703" id="Fill-1" fill="#007ABF"></path>
                    <g id="Group-5" transform="translate(0.000000, 1.004973)">
                        <mask id="mask-2" fill="white">
                            <use xlink:href="#path-1"></use>
                        </mask>
                        <g id="Clip-4"></g>
                        <path d="M62.8813578,70.3325176 C62.2294409,69.7896527 61.0597923,68.8901122 59.3992492,67.8963554 C61.577524,65.7865851 63.4661821,63.4973554 65.0462141,61.0443689 C67.5073962,62.1121527 69.1299201,63.041977 69.7986102,63.4457608 C67.7914217,66.0221257 65.4655431,68.3393959 62.8813578,70.3325176 Z M54.1458946,75.4022473 C53.6639457,75.0130446 52.8744888,74.4241932 51.8010064,73.7882338 C52.9438179,73.0782473 54.1089936,72.2897473 55.2719329,71.4148824 C56.4348722,70.5411392 57.5374281,69.6247743 58.5784824,68.6702743 C60.1126677,69.5698149 61.24877,70.4110311 61.9800799,71.0077338 C59.5636262,72.76195 56.9380671,74.2413689 54.1458946,75.4022473 Z M9.10547923,63.4300581 C9.80659744,62.9724365 11.3665016,62.0325176 13.7516454,60.9680986 C15.3383866,63.4401527 17.2382268,65.74845 19.4321565,67.8728014 C17.6486102,68.9585311 16.5225719,69.9018149 16.0395048,70.3370041 C13.447492,68.3382743 11.1171406,66.0142743 9.10547923,63.4300581 Z M8.24222045,17.1407338 C8.78790735,17.4850716 10.4752875,18.5001392 13.2014856,19.6957878 C13.055,19.9391797 12.9107508,20.1848149 12.768738,20.4315716 C11.2233706,23.1380446 10.0380671,26.0284635 9.21841853,29.0815176 C5.72736422,28.4320986 3.56138978,27.8645581 2.88151757,27.6772473 C4.12832268,23.8715851 5.94876997,20.3250176 8.24222045,17.1407338 Z M16.0305591,9.08749054 C16.3861502,9.43967973 17.5490895,10.5242878 19.5462141,11.7950851 C17.3198562,13.9351392 15.3942971,16.2613824 13.7874281,18.7547473 C11.1674601,17.6118149 9.48902556,16.6236662 8.8963738,16.2580176 C10.9527636,13.5672473 13.3524441,11.1546392 16.0305591,9.08749054 Z M70.0166613,16.2535311 C69.5581949,16.5417878 67.8573962,17.5703149 65.0752875,18.7805446 C63.5030831,16.3331662 61.6233706,14.0461797 59.456278,11.9364095 C61.7363099,10.5399905 62.9339137,9.38247703 63.0714537,9.24676081 C63.0736901,9.24451757 63.0770447,9.2411527 63.0792812,9.23890946 C65.6780032,11.2712878 68.0105911,13.6300581 70.0166613,16.2535311 Z M76.033754,27.6772473 C75.2856709,27.8600716 73.0358307,28.3905986 69.6006869,29.0063689 C68.7832748,25.9813554 67.6069169,23.1156122 66.0749681,20.4315716 C65.9396645,20.1937878 65.8010064,19.9571257 65.6589936,19.7215851 C68.5931789,18.43845 70.3073962,17.3695446 70.6696965,17.1351257 C72.9653834,20.3205311 74.7869489,23.8682203 76.033754,27.6772473 Z M69.7617093,50.1287473 C70.5377476,47.0442878 70.948131,43.7971932 70.9883866,40.4087743 L77.9358307,40.4076527 C77.8653834,44.325477 77.2101118,48.1098284 76.0527636,51.6687338 C75.3248083,51.4545041 73.1297604,50.8376122 69.7617093,50.1287473 Z M66.0749681,59.3451122 C67.5297604,56.7878149 68.6636262,54.0667608 69.4754473,51.1976527 C72.7842332,51.8919365 74.9434984,52.4886392 75.6971725,52.708477 C74.4280032,56.2651392 72.6545208,59.5806527 70.4628275,62.5675311 C69.8366294,62.17945 68.1984505,61.2227068 65.6310383,60.1022068 C65.783115,59.8520851 65.9307188,59.6008419 66.0749681,59.3451122 Z M62.3736901,58.8000041 C61.4209744,58.4523014 60.3508466,58.0922608 59.1744888,57.7367068 C59.3053195,57.4585446 59.4350319,57.1792608 59.5602716,56.9010986 C60.5934984,54.6062608 61.4109105,52.2553419 62.0102716,49.862923 C64.4289617,50.2263284 66.5781629,50.6132878 68.4232109,50.983423 C67.54877,54.0734905 66.2874281,56.9751257 64.6425399,59.6827203 C63.9436581,59.3933419 63.1866294,59.0961122 62.3736901,58.8000041 Z M55.6879073,65.9761392 C55.29877,65.8034095 54.9051597,65.6374095 54.5093131,65.4781392 C56.1139457,63.3021932 57.5083546,61.049977 58.6813578,58.73495 C59.891262,59.0961122 60.989345,59.4640041 61.9621885,59.8184365 C62.7046805,60.0887473 63.4002077,60.3590581 64.0476518,60.6248824 C62.4832748,63.0206662 60.6057987,65.2583014 58.4174601,67.3321797 C57.6022843,66.8812878 56.6920607,66.4225446 55.6879073,65.9761392 Z M48.6085144,72.2067473 C49.5489297,71.2937473 50.5150639,70.2966257 51.4778435,69.2142608 C52.3042013,68.2844365 53.0880671,67.3366662 53.8327955,66.3743149 C55.2417412,66.9272743 56.4907827,67.5206122 57.5776837,68.1072203 C56.6518051,68.9372203 55.675607,69.7403014 54.6479712,70.5153419 C53.3228914,71.5135851 51.9955751,72.397423 50.7051597,73.1758284 C50.075607,72.8471932 49.3744888,72.5163149 48.6085144,72.2067473 Z M50.733115,74.4331662 C51.6757668,74.9603284 52.4238498,75.468423 52.9639457,75.8699635 C49.7994089,77.0644905 46.4391853,77.8507473 42.9447764,78.1670446 C44.9720927,77.3987338 47.7374281,76.1929905 50.733115,74.4331662 Z M43.0431789,76.9568149 C44.3671406,75.9653014 45.991901,74.6552473 47.7340735,73.0367473 C48.3994089,73.2902338 49.0166613,73.5605446 49.5813578,73.8342203 C47.1078754,75.2418554 44.825607,76.2591662 43.0431789,76.9568149 Z M27.7046805,74.1785581 C30.8647444,76.0718554 33.7989297,77.3572338 35.9257668,78.1625581 C32.2423802,77.8260716 28.7065974,76.9646662 25.3955751,75.6568554 C25.8719329,75.2822338 26.6379073,74.7438554 27.7046805,74.1785581 Z M22.2220927,67.5811797 C23.0048403,67.1897338 23.9061182,66.7814635 24.9203355,66.3832878 C25.6997284,67.3927473 26.5227316,68.3842608 27.3938179,69.3555851 C28.2458946,70.3067203 29.096853,71.1871932 29.9276837,71.9981257 C29.118099,72.2908689 28.4136262,72.5970716 27.8165016,72.88645 C27.791901,72.8987878 27.7695367,72.9111257 27.7460543,72.9223419 C26.5954153,72.2123554 25.4201757,71.4204905 24.2449361,70.5388959 C23.268738,69.8053554 22.2679393,68.9876932 21.2660224,68.081423 C21.5701757,67.915423 21.8888658,67.7483014 22.2220927,67.5811797 Z M10.4327955,50.900423 C11.1093131,50.7647068 11.8249681,50.6278689 12.5819968,50.4899095 C13.8265655,50.2633419 15.2377476,50.028923 16.7998882,49.7989905 C17.403722,52.2744095 18.2367891,54.6982338 19.296853,57.0570041 C19.3863099,57.2566527 19.4791214,57.4551797 19.5719329,57.6537068 C18.2591534,58.0485176 17.0839137,58.4511797 16.056278,58.8381392 C15.3998882,59.0860176 14.783754,59.3327743 14.2078754,59.5750446 C12.6770447,57.0390581 11.3653834,54.1576122 10.4327955,50.900423 Z M9.34365815,51.1247473 C10.1577157,54.0196527 11.3005272,56.7665041 12.768738,59.3451122 C12.8995687,59.573923 13.0326358,59.8004905 13.1679393,60.0270581 C10.7168211,61.1296122 9.14014377,62.0930851 8.44238019,62.5518284 C6.24397764,59.5537338 4.46490415,56.2202743 3.19573482,52.6456662 C4.08471246,52.3820851 6.19142173,51.7898689 9.34365815,51.1247473 Z M7.84972843,40.4188689 C7.88998403,43.7792473 8.29589457,46.999423 9.0607508,50.0625716 C5.86266773,50.7389095 3.72912141,51.3412203 2.8434984,51.605923 C1.69956869,48.06945 1.05100639,44.3108959 0.979440895,40.4199905 L7.84972843,40.4188689 Z M12.1514856,30.7101122 C13.4318371,30.9153689 14.889984,31.1295986 16.5147444,31.3382203 C15.9500479,33.9605716 15.648131,36.6255446 15.6134665,39.321923 L8.94110224,39.3230446 C8.97688498,36.1813824 9.33359425,33.1888959 10.005639,30.3478284 C10.6788019,30.4678419 11.3933387,30.588977 12.1514856,30.7101122 Z M16.4554792,21.0013554 C17.419377,21.3546662 18.5018051,21.7214365 19.6926997,22.0825986 C19.5573962,22.3652473 19.4254473,22.6478959 19.296853,22.9305446 C18.2155431,25.3229635 17.3690575,27.7692203 16.761869,30.2580986 C14.2962141,29.9418014 12.126885,29.60195 10.2773642,29.2744365 C11.1540415,26.0127608 12.4589936,22.9585851 14.189984,20.1163959 C14.8888658,20.4068959 15.6447764,20.7041257 16.4554792,21.0013554 Z M21.8038818,13.0961662 C22.5597923,13.4920986 23.4252875,13.9037338 24.3958946,14.3063959 C22.7744888,16.496923 21.3688978,18.7637203 20.1858307,21.0865986 C18.962508,20.7198284 17.8532428,20.3463284 16.8703355,19.9862878 C16.1278435,19.7148554 15.4334345,19.4423014 14.783754,19.176477 C16.3716134,16.7470446 18.2792812,14.4802473 20.5067572,12.3805716 C20.9126677,12.6161122 21.3431789,12.8561392 21.8038818,13.0961662 Z M24.2147444,9.25797703 C25.3653834,8.38984189 26.519377,7.60919324 27.64877,6.90705811 C28.3163419,7.21886892 29.1024441,7.54750405 30.003722,7.86043649 C29.1449361,8.70838243 28.2671406,9.62586892 27.3915815,10.6140176 C26.5808786,11.5281392 25.8115495,12.4579635 25.0802396,13.4034905 C24.053722,12.9873689 23.1434984,12.5600311 22.356278,12.1495176 C22.0051597,11.9666932 21.6719329,11.7849905 21.3532428,11.6032878 C22.2589936,10.7957203 23.2117093,10.01395 24.2147444,9.25797703 Z M26.5070767,6.33278784 C25.5431789,6.94967973 24.5647444,7.62377432 23.5896645,8.35843649 C22.4613898,9.20750405 21.3890256,10.0947068 20.3736901,11.018923 C18.5219329,9.8636527 17.3657029,8.84522027 16.9184185,8.42236892 C19.0273642,6.88911216 21.2962141,5.56447703 23.6958946,4.47986892 C24.0380671,4.76700405 24.9773642,5.50839595 26.5070767,6.33278784 Z M27.5872684,5.65981486 C26.2957348,5.01151757 25.3732109,4.38677432 24.8387061,3.98523378 C28.6506869,2.40935541 32.7690575,1.43017973 37.0764058,1.16547703 C34.9149042,1.92481486 31.4115495,3.34590946 27.5872684,5.65981486 Z M51.3559585,5.70580135 C47.5059585,3.36273378 43.9724121,1.92705811 41.8008466,1.16323378 C46.2155431,1.43017973 50.4311981,2.44749054 54.3236901,4.08842297 C53.8529233,4.39911216 52.8353514,5.02722027 51.3559585,5.70580135 Z M55.2719329,8.35843649 C54.333754,7.65069324 53.3933387,7.0001527 52.4652236,6.40008514 C54.2375879,5.52970676 55.2216134,4.80289595 55.2719329,4.76476081 L55.325607,4.72213919 C55.383754,4.68400405 55.4396645,4.6447473 55.4966933,4.60661216 C57.8684185,5.70131486 60.1115495,7.03155811 62.1970128,8.56817973 C61.8425399,8.89681486 60.6505272,9.94440946 58.6299201,11.1546392 C57.5743291,10.1821932 56.455,9.24900405 55.2719329,8.35843649 Z M56.6383866,12.2482203 C55.8411022,12.6486392 54.9196965,13.0658824 53.8808786,13.4730311 C53.1227316,12.4871257 52.3220927,11.5180446 51.4778435,10.5669095 C50.6157029,9.59446351 49.7513259,8.69155811 48.9048403,7.85595 C49.6652236,7.60358514 50.3473323,7.3422473 50.9433387,7.09212568 C51.0585144,7.04389595 51.1714537,6.99454459 51.2832748,6.94631486 C52.3903035,7.63835541 53.5196965,8.40666622 54.646853,9.25797703 C55.6230511,9.99488243 56.6260863,10.8170311 57.6280032,11.7289095 C57.3137859,11.9016392 56.9850319,12.0754905 56.6383866,12.2482203 Z M62.0784824,30.1672473 C61.4735304,27.6895851 60.6326358,25.2556662 59.5602716,22.87895 C59.4417412,22.6164905 59.3198562,22.3551527 59.1957348,22.0938149 C60.3642652,21.7393824 61.4265655,21.3815851 62.3748083,21.0350041 C63.1765655,20.7433824 63.9235304,20.4506392 64.6157029,20.1657473 C66.2091534,22.7948284 67.5644249,25.7940446 68.5048403,29.1992878 C66.6430192,29.5178284 64.4882268,29.8520716 62.0784824,30.1672473 Z M69.8936581,39.31295 L63.2391853,39.3140716 C63.2034026,36.5851662 62.8970128,33.8887878 62.3244888,31.2395176 C64.7465335,30.920977 66.9113898,30.5844905 68.7799201,30.2614635 C69.4530831,33.0172878 69.8545208,36.0288419 69.8936581,39.31295 Z M63.2391853,40.4098959 L69.8947764,40.4087743 C69.8567572,43.7422338 69.4597923,46.9130581 68.7083546,49.9122743 C67.8931789,49.7485176 67.0209744,49.5802743 66.0928594,49.4153959 C64.9455751,49.2090176 63.6652236,48.9947878 62.2652236,48.783923 C62.8746486,46.0370716 63.2022843,43.2408689 63.2391853,40.4098959 Z M54.8883866,47.86195 C55.2629872,45.3786797 55.4620288,42.8920446 55.4877476,40.4110176 L62.1455751,40.4098959 C62.1064377,43.3126527 61.7530831,46.0516527 61.1716134,48.6224095 C59.2684185,48.350977 57.1661821,48.0907608 54.8883866,47.86195 Z M52.970655,56.1922338 C52.9952556,56.1125986 53.0220927,56.0307203 53.0466933,55.9499635 C53.755639,53.6349365 54.3113898,51.297477 54.7139457,48.9510446 C56.9235304,49.1708824 58.9944569,49.4277338 60.9110703,49.7014095 C60.1998882,52.4875176 59.2225719,55.0627608 58.0909425,57.4192878 C56.5444569,56.982977 54.832476,56.5612473 52.970655,56.1922338 Z M49.9380671,63.9684365 C50.976885,61.7622068 51.8781629,59.5155986 52.6318371,57.2431932 C54.434393,57.5965041 56.0915815,58.0002878 57.5955751,58.4197743 C56.3252875,60.9030446 54.8939776,63.1227338 53.4447764,65.0676257 C52.2997284,64.6470176 51.1300799,64.2802473 49.9380671,63.9684365 Z M45.2494089,72.2504905 C45.7034026,72.3660176 46.140623,72.4938824 46.5621885,72.628477 C45.1006869,73.9598419 43.7375879,75.0623959 42.5903035,75.9282878 C43.377524,74.9244365 44.2855112,73.6928959 45.2494089,72.2504905 Z M35.6696965,76.8917608 C33.8123482,76.1570986 31.440623,75.0870716 28.8832748,73.6031662 C29.4647444,73.3440716 30.1088339,73.0883419 30.8188978,72.8494365 C32.6192173,74.5307473 34.2965335,75.8778149 35.6696965,76.8917608 Z M33.8101118,72.0586932 C34.9238498,73.7815041 35.9615495,75.2317608 36.8147444,76.3601122 C35.4997284,75.4134635 33.8369489,74.1168689 32.0377476,72.4781797 C32.5946166,72.3233959 33.1850319,72.1820716 33.8101118,72.0586932 Z M26.4433387,57.1299095 C27.2260863,59.3821257 28.1542013,61.6343419 29.2232109,63.8708554 C27.7863099,64.2264095 26.476885,64.6358014 25.3016454,65.0665041 C23.8446166,63.1036662 22.4099521,60.860423 21.141901,58.3446257 C22.7297604,57.90495 24.49877,57.4877068 26.4433387,57.1299095 Z M24.2382268,48.9028149 C24.6329553,51.0092203 25.1607508,53.1313284 25.8238498,55.2590446 C25.9099521,55.5327203 25.9971725,55.8063959 26.0866294,56.0800716 C24.0917412,56.4535716 22.276885,56.8865176 20.6532428,57.3407743 C19.5462141,54.9943419 18.591262,52.4258284 17.896853,49.6419635 C19.81123,49.3750176 21.9313578,49.1204095 24.2382268,48.9028149 Z M16.7070767,40.4166257 L23.3794409,40.4166257 C23.4096326,42.8471797 23.6321565,45.3192338 24.0470128,47.8170851 C21.7166613,48.0402878 19.5764058,48.2982608 17.6452556,48.5685716 C17.0839137,46.0202473 16.7450958,43.3003149 16.7070767,40.4166257 Z M24.032476,32.1267203 C23.6265655,34.5628824 23.4085144,36.9653959 23.3794409,39.3196797 L16.7059585,39.321923 C16.7439776,36.5582473 17.0704952,33.9403824 17.6128275,31.4761797 C19.5450958,31.7105986 21.6898243,31.9338014 24.032476,32.1267203 Z M26.1470128,23.6831527 C26.0363099,24.0151527 25.9289617,24.3460311 25.8238498,24.6769095 C25.1540415,26.8147203 24.6217732,28.9390716 24.2259265,31.0409905 C21.9391853,30.8536797 19.8157029,30.6327203 17.8655431,30.3971797 C18.5856709,27.5067608 19.5976518,24.8373014 20.7740096,22.4000176 C22.3909425,22.8598824 24.1879073,23.2995581 26.1470128,23.6831527 Z M29.2914217,15.9338689 C28.2235304,18.1670176 27.2920607,20.4068959 26.5059585,22.6366797 C24.6005272,22.2687878 22.8505272,21.8448149 21.2716134,21.4017743 C22.5519649,18.9128959 23.9944569,16.6831122 25.4526038,14.7258824 C26.6054792,15.1610716 27.8869489,15.5738284 29.2914217,15.9338689 Z M30.8926997,7.00239595 C30.1088339,6.75003108 29.4065974,6.48196351 28.789345,6.21726081 C31.4853514,4.64026081 33.9834345,3.52200405 35.8944569,2.77276081 C34.4955751,3.82596351 32.755639,5.24032838 30.8926997,7.00239595 Z M36.8013259,3.46031486 C35.9604313,4.59651757 34.9395048,6.04789595 33.8425399,7.76285541 C33.2342332,7.64284189 32.6561182,7.50712568 32.1104313,7.36019324 C33.8760863,5.72711216 35.5064377,4.42266622 36.8013259,3.46031486 Z M43.033115,2.79070676 C44.9430192,3.54331486 47.4310383,4.66381486 50.1147444,6.23857162 C49.4717732,6.49542297 48.7673003,6.75003108 48.0057987,6.98893649 C46.156278,5.24257162 44.4286422,3.83830135 43.033115,2.79070676 Z M45.3701757,7.67761216 C44.3682588,6.16678784 43.4244888,4.88253108 42.6081949,3.83942297 C43.8080351,4.75130135 45.2449361,5.9211527 46.782476,7.34112568 C46.3284824,7.46226081 45.8577157,7.57442297 45.3701757,7.67761216 Z M52.6597923,22.58845 C51.9105911,20.3238959 51.0171406,18.0817743 49.9839137,15.8777878 C51.2609105,15.5480311 52.4339137,15.1778959 53.4984505,14.7886932 C54.9375879,16.7324635 56.3588339,18.9443014 57.6190575,21.4107473 C56.1173003,21.8302338 54.4601118,22.2340176 52.6597923,22.58845 Z M54.7452556,30.9703284 C54.3404633,28.56445 53.7746486,26.1686662 53.0466933,23.7941932 C53.0299201,23.741477 53.013147,23.6910041 52.997492,23.6382878 C54.8581949,23.2692743 56.5690575,22.8475446 58.1144249,22.4101122 C59.270655,24.8182338 60.2636262,27.4540446 60.9759265,30.30745 C59.0425399,30.5485986 56.9593131,30.7751662 54.7452556,30.9703284 Z M47.7351917,39.3163149 C47.7105911,37.0113824 47.5976518,34.7513149 47.4165016,32.5619095 C49.6450958,32.4587203 51.7842332,32.3173959 53.8204952,32.1491527 C54.1637859,34.4350176 54.370655,36.8285581 54.397492,39.3163149 L47.7351917,39.3163149 Z M47.4668211,47.2977743 C47.6379073,45.0691122 47.7374281,42.766423 47.7396645,40.4121392 L54.397492,40.4110176 C54.3695367,42.9615851 54.1526038,45.4145716 53.7936581,47.7576392 C51.8032428,47.57145 49.6887061,47.4133014 47.4668211,47.2977743 Z M46.5398243,55.2321257 C46.877524,53.0651527 47.1671406,50.7748014 47.376246,48.392477 C49.5545208,48.5057608 51.6377476,48.659423 53.6158626,48.8444905 C53.1764058,51.3715041 52.5759265,53.7583149 51.8781629,55.9847338 C50.2075559,55.6818959 48.426246,55.423923 46.5398243,55.2321257 Z M45.0313578,63.0150581 C45.5032428,60.9770716 45.9628275,58.7315851 46.3642652,56.3167338 C48.1903035,56.5018014 49.9157029,56.7485581 51.5359904,57.0390581 C50.7208147,59.4785851 49.7960543,61.7083689 48.8511661,63.7014905 C47.5998882,63.4132338 46.326246,63.184423 45.0313578,63.0150581 Z M42.9570767,70.6802203 C43.2623482,69.6988014 43.5732109,68.6455986 43.8840735,67.5250986 C44.1759265,66.4718959 44.4778435,65.3199905 44.777524,64.0862068 C46.0366294,64.245477 47.2308786,64.4574635 48.362508,64.7087068 C47.8168211,65.8067743 47.270016,66.8263284 46.7388658,67.7583959 C46.0735304,68.9293689 45.4048403,70.013977 44.7573962,71.0077338 C44.1792812,70.8798689 43.5788019,70.76995 42.9570767,70.6802203 Z M42.6216134,71.7390311 C43.1303994,71.80745 43.6246486,71.8915716 44.104361,71.9880311 C43.0029233,73.6087743 41.9819968,74.9446257 41.1500479,75.9686662 C41.5749681,74.8380716 42.0815176,73.4136122 42.6216134,71.7390311 Z M36.425607,71.6717338 C36.9288019,73.3025716 37.3973323,74.7090851 37.7909425,75.8385581 C36.998131,74.79545 36.0286422,73.4528689 34.9808786,71.8534365 C35.4460543,71.7827743 35.926885,71.7210851 36.425607,71.6717338 Z M34.3233706,64.0536797 C34.5626677,65.0373419 34.8019649,65.9694095 35.0356709,66.8420311 C35.3934984,68.1823689 35.7535623,69.44195 36.1013259,70.6050716 C35.4851917,70.6701257 34.8970128,70.7531257 34.3334345,70.8495851 C33.625607,69.7302068 32.8920607,68.5042743 32.1596326,67.1807608 C31.7190575,66.3844095 31.2673003,65.5330986 30.8144249,64.6301932 C31.9147444,64.3991392 33.0855112,64.2017338 34.3233706,64.0536797 Z M32.6863099,56.2763554 C33.1089936,58.6721392 33.5842332,60.9265986 34.0661821,62.9814095 C32.739984,63.1440446 31.4887061,63.3616392 30.3168211,63.6173689 C29.3495687,61.6040581 28.3934984,59.3619365 27.5436581,56.9358689 C29.1482907,56.668923 30.8636262,56.4423554 32.6863099,56.2763554 Z M31.583754,48.3767743 C31.8196965,50.7232068 32.1361502,53.00795 32.5006869,55.1917473 C30.6153834,55.364477 28.841901,55.6033824 27.1858307,55.8837878 C26.4489297,53.6528824 25.8093131,51.2828959 25.3363099,48.8018689 C27.2965335,48.6280176 29.3819968,48.4833284 31.583754,48.3767743 Z M31.1387061,40.4155041 C31.1565974,42.7260446 31.2784824,45.0264905 31.4797604,47.2831932 C29.2455751,47.3897473 27.1288019,47.5400446 25.1417412,47.7161392 C24.7447764,45.362977 24.5010064,42.9212068 24.4696965,40.4166257 L31.1387061,40.4155041 Z M31.4741693,32.5843419 C31.276246,34.7995446 31.1565974,37.0573689 31.1387061,39.3185581 L24.4696965,39.3196797 C24.5010064,36.8913689 24.7403035,34.5135311 25.1305591,32.2142068 C27.1153834,32.3645041 29.2321565,32.4923689 31.4741693,32.5843419 Z M32.5051597,24.6163419 C32.1361502,26.82145 31.8152236,29.1286257 31.5770447,31.4918824 C29.3819968,31.4010311 27.2965335,31.2765311 25.326246,31.1273554 C25.8126677,28.596977 26.476885,26.1697878 27.2417412,23.8872878 C28.8922204,24.1822743 30.6489297,24.4323959 32.5051597,24.6163419 Z M34.0717732,16.8401392 C33.5898243,18.8971932 33.1145847,21.1471662 32.691901,23.533977 C30.8994089,23.3567608 29.2008466,23.1200986 27.6040415,22.8385716 C28.4583546,20.4349365 29.4155431,18.2029095 30.3816773,16.1952068 C31.5356709,16.4543014 32.7657029,16.6741392 34.0717732,16.8401392 Z M36.0990895,9.21535541 C35.7513259,10.3829635 35.3923802,11.6459095 35.0356709,12.9896122 C34.8030831,13.8599905 34.5660224,14.7886932 34.3278435,15.7678689 C33.1101118,15.6175716 31.9594728,15.4190446 30.8781629,15.1835041 C31.3053195,14.32995 31.7313578,13.5223824 32.1473323,12.7641662 C32.8965335,11.3991527 33.646853,10.1305986 34.3703355,8.97420676 C34.9249681,9.06842297 35.5008466,9.15030135 36.0990895,9.21535541 Z M36.4211342,8.14757162 C35.9369489,8.09709865 35.4661821,8.0376527 35.0110703,7.96811216 C36.0398243,6.37989595 36.9903035,5.03843649 37.7719329,3.98747703 C37.3816773,5.12143649 36.9176198,6.52458514 36.4211342,8.14757162 Z M42.5813578,8.12738243 C42.025607,6.35634189 41.505639,4.85785541 41.0773642,3.68463919 C41.9462141,4.75017973 43.0297604,6.16790946 44.1994089,7.90081486 C43.6760863,7.98942297 43.1359904,8.06457162 42.5813578,8.12738243 Z M44.6914217,15.7622608 C44.3950958,14.5251122 44.0965335,13.3709635 43.8080351,12.3132743 C43.5072364,11.2073554 43.2053195,10.1642473 42.9101118,9.19180135 C43.5855112,9.11216622 44.2351917,9.01234189 44.8591534,8.89793649 C45.4685783,9.83897703 46.0947764,10.8618959 46.7209744,11.9588419 C47.2722524,12.9256797 47.8391853,13.9844905 48.405,15.127423 C47.2465335,15.3831527 46.0075559,15.6007473 44.6914217,15.7622608 Z M46.2770447,23.5272473 C45.8722524,21.1213689 45.4126677,18.8770041 44.9430192,16.8356527 C46.347492,16.6584365 47.6658626,16.4206527 48.8947764,16.1413689 C49.8351917,18.1356122 50.7554792,20.3631527 51.5650639,22.7937068 C49.91123,23.0898149 48.1455751,23.3421797 46.2770447,23.5272473 Z M46.4548403,24.6118554 C48.3826358,24.4178149 50.2019649,24.1553554 51.905,23.8457878 C52.6072364,26.0957608 53.2099521,28.5094905 53.6460543,31.0645446 C51.634393,31.229423 49.5209744,31.3685041 47.3203355,31.46945 C47.0989297,29.0848824 46.8003674,26.7878014 46.4548403,24.6118554 Z M39.989345,31.6500311 L39.989345,24.9573149 C41.8578754,24.9427338 43.6503674,24.8552473 45.3634665,24.7116797 C45.7089936,26.8696797 46.0053195,29.1488149 46.2278435,31.5165581 C44.2139457,31.5961932 42.1318371,31.6433014 39.989345,31.6500311 Z M39.989345,39.3174365 L39.989345,32.7458554 C42.1653834,32.7391257 44.2799201,32.6908959 46.3240096,32.6090176 C46.5040415,34.7838419 46.618099,37.0270851 46.6426997,39.3163149 L39.989345,39.3174365 Z M39.989345,47.0891527 L39.989345,40.4132608 L46.6471725,40.4121392 C46.6438179,42.748477 46.5454153,45.0332203 46.3743291,47.2461797 C44.3291214,47.1530851 42.1966933,47.0981257 39.989345,47.0891527 Z M39.989345,54.8776932 L39.989345,48.1872203 C42.1597923,48.1950716 44.2609105,48.2500311 46.283754,48.3397608 C46.0746486,50.7063824 45.7861502,52.9810311 45.4495687,55.1311797 C43.7107508,54.9820041 41.8880671,54.8922743 39.989345,54.8776932 Z M39.989345,62.6606257 L39.989345,55.9746392 C41.8265655,55.9903419 43.589984,56.0767068 45.2728914,56.2180311 C44.8703355,58.6250311 44.4107508,60.8615446 43.9388658,62.8871932 C42.6417412,62.7525986 41.325607,62.6763284 39.989345,62.6606257 Z M39.989345,71.5315311 C40.5104313,71.5438689 41.018099,71.5707878 41.5123482,71.6156527 C40.9442971,73.3642608 40.4176198,74.8257338 39.989345,75.948477 L39.989345,71.5315311 Z M38.896853,71.5304095 L38.896853,75.6938689 C38.5121885,74.5946797 38.0458946,73.2072338 37.5415815,71.5831257 C37.9821565,71.5562068 38.4327955,71.5382608 38.896853,71.5304095 Z M38.896853,63.7575716 L38.896853,70.4345851 C38.3176198,70.4435581 37.756278,70.4693554 37.2128275,70.5063689 C36.8482907,69.2950176 36.468099,67.9726257 36.091262,66.5582608 C35.8709744,65.7349905 35.6450958,64.8601257 35.4192173,63.9381527 C36.5284824,63.8349635 37.6869489,63.7710311 38.896853,63.7575716 Z M38.896853,55.9746392 L38.896853,62.6617473 C37.5952556,62.6763284 36.3484505,62.7458689 35.1609105,62.8613959 C34.6789617,60.8178014 34.203722,58.5723149 33.7799201,56.1843824 C35.4057987,56.0621257 37.1133067,55.9880986 38.896853,55.9746392 Z M38.896853,48.1883419 L38.896853,54.8776932 C37.0462141,54.8911527 35.2760863,54.967423 33.5931789,55.0986527 C33.2297604,52.9305581 32.9133067,50.6592743 32.676246,48.327423 C34.6633067,48.2455446 36.7398243,48.1950716 38.896853,48.1883419 Z M38.896853,40.4132608 L38.896853,47.0891527 C36.7029233,47.0970041 34.5917412,47.1485986 32.5722524,47.2327203 C32.3720927,44.9928419 32.2490895,42.7092203 32.2323163,40.4155041 L38.896853,40.4132608 Z M38.896853,32.746977 L38.896853,39.3174365 L32.2323163,39.3185581 C32.2490895,37.07195 32.368738,34.8287068 32.5666613,32.6258419 C34.5827955,32.6976257 36.6950958,32.7413689 38.896853,32.746977 Z M38.896853,24.9573149 L38.896853,31.6500311 C36.7375879,31.644423 34.6599521,31.602923 32.6695367,31.5333824 C32.9077157,29.1891932 33.2286422,26.9022068 33.5965335,24.7161662 C35.2883866,24.8574905 37.0573962,24.9427338 38.896853,24.9573149 Z M38.896853,17.1721392 L38.896853,23.8614905 C37.1233706,23.8469095 35.4169808,23.7661527 33.784393,23.6326797 C34.2070767,21.2525986 34.6834345,19.010477 35.1653834,16.9646392 C36.3506869,17.0835311 37.5963738,17.1553149 38.896853,17.1721392 Z M38.896853,9.39145 L38.896853,16.0763149 C37.6869489,16.0606122 36.5296006,15.9955581 35.4225719,15.8878824 C35.6462141,14.9748824 35.868738,14.1056257 36.0867891,13.2890851 C36.4647444,11.8668689 36.8438179,10.5366257 37.2094728,9.31517973 C37.7551597,9.35443649 38.3176198,9.38135541 38.896853,9.39145 Z M38.896853,8.29450405 C38.4327955,8.2866527 37.9788019,8.26758514 37.5359904,8.23954459 C38.0425399,6.59861216 38.5110703,5.19209865 38.896853,4.07720676 L38.896853,8.29450405 Z M39.989345,8.29450405 L39.989345,3.89213919 C40.4064377,5.02385541 40.9163419,6.48757162 41.4676198,8.22720676 C40.9845527,8.26309865 40.4925399,8.28440946 39.989345,8.29450405 Z M39.989345,17.1721392 C41.3367891,17.1553149 42.6249681,17.0812878 43.8505272,16.9590311 C44.3190575,18.9902878 44.7797604,21.2268014 45.1856709,23.62595 C43.5284824,23.7639095 41.7941374,23.8469095 39.989345,23.8614905 L39.989345,17.1721392 Z M42.7602716,12.6239635 C43.033115,13.6266932 43.3160224,14.7169095 43.5966933,15.8833959 C42.4505272,15.9933149 41.2462141,16.0606122 39.989345,16.0763149 L39.989345,9.39032838 C40.6099521,9.37911216 41.2137859,9.34770676 41.8008466,9.30059865 C42.1150639,10.3291257 42.4382268,11.4406527 42.7602716,12.6239635 Z M41.8534026,70.5456257 C41.2506869,70.488423 40.6289617,70.4491662 39.989345,70.4357068 L39.989345,63.75645 C41.2741693,63.7721527 42.5042013,63.8439365 43.6827955,63.9617068 C43.3998882,65.1237068 43.1147444,66.2094365 42.8385463,67.2076797 C42.5075559,68.3988419 42.1754473,69.5148554 41.8534026,70.5456257 Z M55.4877476,39.3151932 C55.463147,36.8958554 55.2719329,34.4720311 54.9152236,32.0549365 C57.1583546,31.8552878 59.270655,31.6253554 61.227524,31.3797203 C61.7765655,33.8697203 62.1075559,36.5167473 62.1455751,39.3140716 L55.4877476,39.3151932 Z M50.6615495,11.2959635 C51.3637859,12.0867068 52.0839137,12.9469905 52.8040415,13.8745716 C51.7965335,14.2301257 50.6950958,14.5688554 49.4986102,14.86945 C48.9272045,13.7052068 48.3177796,12.5533014 47.6692173,11.4148554 C47.11123,10.4356797 46.554361,9.51707162 46.0097923,8.66127432 C46.6080351,8.52667973 47.1772045,8.3797473 47.7161821,8.22384189 C48.6800799,9.15590946 49.6719329,10.17995 50.6615495,11.2959635 Z M31.1834345,8.23842297 C31.8174601,8.42461216 32.4962141,8.59958514 33.2208147,8.7532473 C32.5599521,9.82103108 31.8811981,10.977423 31.2035623,12.2112068 C30.7070767,13.1141122 30.2340735,14.0203824 29.7823163,14.9288959 C28.4561182,14.5980176 27.2450958,14.2166662 26.148131,13.8151257 C26.8335942,12.9391392 27.5179393,12.1225986 28.184393,11.3688689 C29.1930192,10.230423 30.2027636,9.18619324 31.1834345,8.23842297 Z M15.6134665,40.4166257 C15.6492492,43.2318959 15.9634665,46.0067878 16.5516454,48.7255986 C15.0018051,48.9544095 13.5995687,49.1888284 12.3605911,49.4153959 C11.5800799,49.5567203 10.8420607,49.6980446 10.1465335,49.8382473 C9.41969649,46.9803554 8.98471246,43.8465446 8.94222045,40.4188689 L15.6134665,40.4166257 Z M28.1810383,68.5940041 C27.4653834,67.7942878 26.7318371,66.9227878 25.9971725,65.9806257 C27.118738,65.58245 28.3577157,65.2055851 29.7152236,64.87695 C30.1871086,65.8269635 30.682476,66.7713689 31.2035623,67.7135311 C31.8677796,68.911423 32.5342332,70.0341662 33.1816773,71.0705446 C32.4358307,71.2309365 31.7436581,71.4137608 31.1040415,71.6078014 C30.146853,70.6948014 29.1628275,69.69095 28.1810383,68.5940041 Z M47.4746486,71.7794095 C46.968099,71.6033149 46.4369489,71.4361932 45.8823163,71.2858959 C46.4682588,70.3751392 47.0676198,69.3903554 47.6692173,68.3349095 C48.3010064,67.2256257 48.8958946,66.1028824 49.455,64.968923 C50.6302396,65.2661527 51.7316773,65.6060041 52.7559585,65.9705311 C52.0604313,66.8633419 51.3649042,67.6922203 50.6861502,68.4571662 C49.6048403,69.6752473 48.5212939,70.7822878 47.4746486,71.7794095 Z M70.9883866,39.31295 C70.9492492,36.0961392 70.5757668,33.0105581 69.8712939,30.0707878 C73.3903035,29.4381932 75.6692173,28.89645 76.3613898,28.7248419 C77.3554792,32.0863419 77.905639,35.6385176 77.9414217,39.3118284 L70.9883866,39.31295 Z M64.0241693,19.2224635 C63.3946166,19.4804365 62.7203355,19.7428959 62.0013259,20.0053554 C61.0240096,20.3620311 59.9214537,20.7321662 58.7059585,21.0966932 C57.5407827,18.7951257 56.1553195,16.5507608 54.5629872,14.3815446 C55.5201757,13.9968284 56.3778435,13.6053824 57.1281629,13.2285176 C57.6034026,12.9896122 58.0495687,12.7518284 58.4677796,12.5162878 C60.4145847,14.3916392 62.3323163,16.6135716 64.0241693,19.2224635 Z M2.555,28.7248419 C3.21586262,28.9099095 5.38183706,29.4875446 8.94669329,30.1549095 C8.25228435,33.0722473 7.88551118,36.1342743 7.84972843,39.3230446 L0.974968051,39.3230446 C1.00851438,35.6463689 1.55867412,32.0897068 2.555,28.7248419 Z M14.7971725,60.5183284 C15.3126677,60.3040986 15.8594728,60.0842608 16.4387061,59.8666662 C17.4909425,59.4718554 18.6986102,59.057977 20.0538818,58.6553149 C21.2257668,61.0039905 22.6246486,63.2820041 24.2382268,65.4758959 C23.305639,65.8505176 22.4692173,66.2329905 21.7345527,66.6008824 C21.269377,66.8341797 20.8332748,67.0663554 20.4228914,67.2951662 C18.4503674,65.4041122 16.5080351,63.1597473 14.7971725,60.5183284 Z M16.9363099,71.0077338 C17.4808786,70.5355311 18.5901438,69.6483284 20.2607508,68.65345 C21.3085144,69.6135581 22.4188978,70.5355311 23.5907827,71.4160041 C24.6072364,72.1798284 25.6270447,72.877477 26.6311981,73.5156797 C25.3966933,74.2245446 24.6117093,74.8616257 24.2516454,75.1824095 C21.6529233,74.0563014 19.2018051,72.6520311 16.9363099,71.0077338 Z M75.8145847,24.2888284 C73.827524,19.5768959 70.9827955,15.3438959 67.3586741,11.7087203 C63.7356709,8.07466622 59.5155431,5.22126081 54.8168211,3.22701757 C49.9514856,1.16323378 44.7842332,0.116760811 39.4581949,0.116760811 C34.1310383,0.116760811 28.9637859,1.16323378 24.0984505,3.22701757 C19.3997284,5.22126081 15.1807188,8.07466622 11.5577157,11.7087203 C7.93359425,15.3438959 5.0877476,19.5768959 3.1006869,24.2888284 C1.04317891,29.1690041 -0.000111821086,34.3520176 -0.000111821086,39.695423 C-0.000111821086,45.0388284 1.04317891,50.2308149 3.1006869,55.1188419 C5.0877476,59.8397473 7.93359425,64.0738689 11.5577157,67.707923 C15.1807188,71.341977 19.3997284,74.1953824 24.0984505,76.1896257 C28.9637859,78.2534095 34.1310383,79.2998824 39.4581949,79.2998824 C44.7842332,79.2998824 49.9514856,78.2534095 54.8168211,76.1896257 C59.5155431,74.1953824 63.7356709,71.341977 67.3586741,67.707923 C70.9827955,64.0738689 73.827524,59.8397473 75.8145847,55.1188419 C77.8720927,50.2308149 78.9153834,45.0388284 78.9153834,39.695423 C78.9153834,34.3520176 77.8720927,29.1690041 75.8145847,24.2888284 Z" id="Fill-3" fill="#FFFFFF" mask="url(#mask-2)"></path>
                    </g>
                    <path d="M23.9367572,40.7091446 C23.9367572,34.4493743 30.8886741,29.3740365 39.4619968,29.3740365 C48.021901,29.3740365 54.9615176,34.4493743 54.9615176,40.7091446 C54.9615176,46.9644284 48.021901,52.0420095 39.4619968,52.0420095 C30.8886741,52.0420095 23.9367572,46.9644284 23.9367572,40.7091446" id="Fill-6" fill="#FEFEFE"></path>
                    <path d="M23.9367572,40.7091446 C23.9367572,34.4493743 30.8886741,29.3740365 39.4619968,29.3740365 C48.021901,29.3740365 54.9615176,34.4493743 54.9615176,40.7091446 C54.9615176,46.9644284 48.021901,52.0420095 39.4619968,52.0420095 C30.8886741,52.0420095 23.9367572,46.9644284 23.9367572,40.7091446 Z" id="Stroke-8" stroke="#E85123" stroke-width="1.63929712"></path>
                    <path d="M31.0571885,34.4893041 L28.0044728,46.6476824 L29.8372204,46.6476824 L31.3960064,40.9846149 L35.4651757,40.9846149 L35.8722045,39.2573176 L31.7359425,39.2573176 L32.8194888,34.6979257 L44.1995208,34.6979257 C44.1995208,34.6979257 42.572524,35.8094527 41.4241214,40.2936959 C40.207508,45.0594662 41.4923323,46.1631419 41.4923323,46.1631419 C41.4923323,46.1631419 42.2717252,47.5831149 43.5912141,47.6167635 C44.672524,47.6414392 45.8007987,47.0144527 46.4795527,46.5310338 C47.1549521,46.0464932 45.7583067,50.4499797 45.7583067,50.4499797 L47.8549521,49.7601824 L49.9515974,39.4636959 L45.9584665,39.3268581 L45.6878594,41.1248176 L47.8549521,41.1248176 C47.8549521,41.1248176 47.3372204,43.5609797 46.9089457,44.4380878 C46.5186901,45.2344392 45.4854633,46.5792635 44.2699681,46.509723 C43.0488818,46.4401824 42.5881789,45.2736959 42.5758786,43.9546689 C42.5691693,43.3321689 43.3731629,39.7351284 43.5252396,39.395277 C43.8607029,38.6359392 44.6132588,35.9990068 45.7583067,35.180223 C47.021885,34.2750743 47.8672524,34.3760203 48.6678914,34.9043041 C49.6127796,35.5268041 49.413738,36.4947635 49.413738,36.4947635 L51.1044728,36.5643041 C51.1044728,36.5643041 50.9255591,34.7012905 50.4257188,34.2133851 C49.3734824,33.1770068 48.0584665,33.1770068 48.0584665,33.1770068 L27.8009585,33.1770068 L26.5821086,34.4893041 L31.0571885,34.4893041 Z" id="Fill-10" fill="#E85123"></path>
                    <path d="M30.8524441,45.7137081 C30.8524441,45.1629919 31.218099,44.7143432 31.6653834,44.7143432 C32.1160224,44.7143432 32.4805591,45.1629919 32.4805591,45.7137081 C32.4805591,46.2677892 32.1160224,46.7164378 31.6653834,46.7164378 C31.218099,46.7164378 30.8524441,46.2677892 30.8524441,45.7137081" id="Fill-12" fill="#E85123"></path>
                    <path d="M38.2397923,45.8200378 C38.2397923,45.2648351 38.6054473,44.8161865 39.0538498,44.8161865 C39.5044888,44.8161865 39.8690256,45.2648351 39.8690256,45.8200378 C39.8690256,46.3718757 39.5044888,46.8205243 39.0538498,46.8205243 C38.6054473,46.8205243 38.2397923,46.3718757 38.2397923,45.8200378" id="Fill-14" fill="#E85123"></path>
                    <path d="M49.0741374,45.8200378 C49.0741374,45.2648351 49.4375559,44.8161865 49.8859585,44.8161865 C50.334361,44.8161865 50.6977796,45.2648351 50.6977796,45.8200378 C50.6977796,46.3718757 50.334361,46.8205243 49.8859585,46.8205243 C49.4375559,46.8205243 49.0741374,46.3718757 49.0741374,45.8200378" id="Fill-16" fill="#E85123"></path>
                    <polygon id="Fill-18" fill="#E85123" points="37.5278275 35.9274473 39.3795847 35.9274473 36.9787859 47.1122581 35.0599361 47.1122581"></polygon>
                    <mask id="mask-4" fill="white">
                        <use xlink:href="#path-3"></use>
                    </mask>
                    <g id="Clip-21"></g>
                    <polygon id="Fill-20" fill="#0F7DC5" mask="url(#mask-4)" points="87.9361022 40.9616216 91.8151757 40.9616216 91.8151757 21.6921622 87.9361022 21.6921622"></polygon>
                    <polygon id="Fill-22" fill="#0F7DC5" mask="url(#mask-4)" points="94.1809744 40.9616216 94.1809744 21.6921622 97.9549361 21.6921622 105.817077 34.560527 105.817077 21.6921622 109.42107 21.6921622 109.42107 40.9616216 105.528578 40.9616216 97.7849681 28.3960946 97.7849681 40.9616216"></polygon>
                    <polygon id="Fill-23" fill="#0F7DC5" mask="url(#mask-4)" points="116.477987 40.9616216 116.477987 24.9527162 110.777348 24.9527162 110.777348 21.6921622 126.044281 21.6921622 126.044281 24.9527162 120.357061 24.9527162 120.357061 40.9616216"></polygon>
                    <polygon id="Fill-24" fill="#0F7DC5" mask="url(#mask-4)" points="127.178482 40.9616216 127.178482 21.6921622 141.422252 21.6921622 141.422252 24.9527162 131.057556 24.9527162 131.057556 29.2238514 140.702125 29.2238514 140.702125 32.4709459 131.057556 32.4709459 131.057556 37.714527 141.789026 37.714527 141.789026 40.9616216"></polygon>
                    <path d="M147.601709,29.8418649 L150.471038,29.8418649 C152.331741,29.8418649 153.494681,29.7633514 153.95762,29.6052027 C154.420559,29.4470541 154.782859,29.1756216 155.044521,28.7909054 C155.3073,28.4050676 155.438131,27.9227703 155.438131,27.3440135 C155.438131,26.6957162 155.265927,26.1730405 154.920399,25.7737432 C154.574872,25.3755676 154.08845,25.1232027 153.458898,25.0177703 C153.144681,24.974027 152.200911,24.9527162 150.628706,24.9527162 L147.601709,24.9527162 L147.601709,29.8418649 Z M143.722636,40.9616216 L143.722636,21.6921622 L151.886693,21.6921622 C153.939728,21.6921622 155.431422,21.8660135 156.361773,22.211473 C157.292125,22.5580541 158.036853,23.1738243 158.595958,24.0587838 C159.155064,24.9437432 159.434617,25.9554459 159.434617,27.0950135 C159.434617,28.5407838 159.010815,29.7341892 158.163211,30.6763514 C157.316725,31.6185135 156.049792,32.2118514 154.36353,32.4574865 C155.202188,32.9487568 155.894361,33.4871351 156.440048,34.0737432 C156.986853,34.661473 157.722636,35.7045811 158.648514,37.2019459 L160.994521,40.9616216 L156.355064,40.9616216 L153.550591,36.769 C152.555383,35.2705135 151.873275,34.3261081 151.506502,33.9357838 C151.139728,33.5465811 150.750591,33.2785135 150.340208,33.1349459 C149.929824,32.9902568 149.279026,32.9173514 148.387812,32.9173514 L147.601709,32.9173514 L147.601709,40.9616216 L143.722636,40.9616216 Z" id="Fill-25" fill="#0F7DC5" mask="url(#mask-4)"></path>
                    <polygon id="Fill-26" fill="#0F7DC5" mask="url(#mask-4)" points="161.761166 40.9616216 161.761166 21.6921622 165.535128 21.6921622 173.397268 34.560527 173.397268 21.6921622 177.001262 21.6921622 177.001262 40.9616216 173.10877 40.9616216 165.36516 28.3960946 165.36516 40.9616216"></polygon>
                    <path d="M189.915703,33.3380716 L187.268898,26.1877338 L184.674649,33.3380716 L189.915703,33.3380716 Z M197.057716,40.9617338 L192.837588,40.9617338 L191.160272,36.5851662 L183.481518,36.5851662 L181.895895,40.9617338 L177.780879,40.9617338 L185.263946,21.6922743 L189.365543,21.6922743 L197.057716,40.9617338 Z" id="Fill-27" fill="#0F7DC5" mask="url(#mask-4)"></path>
                    <polygon id="Fill-28" fill="#0F7DC5" mask="url(#mask-4)" points="200.07901 40.9616216 200.07901 24.9527162 194.378371 24.9527162 194.378371 21.6921622 209.645304 21.6921622 209.645304 24.9527162 203.958083 24.9527162 203.958083 40.9616216"></polygon>
                    <polygon id="Fill-29" fill="#0F7DC5" mask="url(#mask-4)" points="210.660863 40.9616216 214.539936 40.9616216 214.539936 21.6921622 210.660863 21.6921622"></polygon>
                    <path d="M220.076869,31.3139932 C220.076869,33.4955473 220.578946,35.1499392 221.584217,36.2760473 C222.588371,37.4021554 223.864249,37.9652095 225.410735,37.9652095 C226.956102,37.9652095 228.225272,37.4066419 229.217125,36.2895068 C230.208978,35.17125 230.704345,33.4955473 230.704345,31.261277 C230.704345,29.0528041 230.221278,27.4062635 229.256262,26.3194122 C228.291246,25.2325608 227.008658,24.6896959 225.410735,24.6896959 C223.811693,24.6896959 222.523514,25.2392905 221.543962,26.3384797 C220.565527,27.4387905 220.076869,29.0965473 220.076869,31.3139932 M216.080383,31.445223 C216.080383,29.4823851 216.372236,27.834723 216.958179,26.5033581 C217.395399,25.5219392 217.991406,24.6414662 218.747316,23.8608176 C219.502109,23.0812905 220.330703,22.5036554 221.229744,22.1267905 C222.427348,21.6175743 223.80722,21.3640878 225.370479,21.3640878 C228.201789,21.3640878 230.466166,22.2445608 232.165847,24.0055068 C233.864409,25.7675743 234.714249,28.2160743 234.714249,31.35325 C234.714249,34.4646284 233.871118,36.8985473 232.184856,38.6550068 C230.498594,40.4114662 228.245399,41.2908176 225.423035,41.2908176 C222.567125,41.2908176 220.29492,40.4159527 218.609776,38.6684662 C216.923514,36.9198581 216.080383,34.5128581 216.080383,31.445223" id="Fill-30" fill="#0F7DC5" mask="url(#mask-4)"></path>
                    <polygon id="Fill-31" fill="#0F7DC5" mask="url(#mask-4)" points="236.411581 40.9616216 236.411581 21.6921622 240.185543 21.6921622 248.047684 34.560527 248.047684 21.6921622 251.651677 21.6921622 251.651677 40.9616216 247.759185 40.9616216 240.015575 28.3960946 240.015575 40.9616216"></polygon>
                    <path d="M264.566677,33.3380716 L261.919872,26.1877338 L259.325623,33.3380716 L264.566677,33.3380716 Z M271.70869,40.9617338 L267.488562,40.9617338 L265.811246,36.5851662 L258.132492,36.5851662 L256.546869,40.9617338 L252.431853,40.9617338 L259.91492,21.6922743 L264.016518,21.6922743 L271.70869,40.9617338 Z" id="Fill-32" fill="#0F7DC5" mask="url(#mask-4)"></path>
                    <polygon id="Fill-33" fill="#0F7DC5" mask="url(#mask-4)" points="272.501725 40.9616216 272.501725 21.8503108 276.380799 21.8503108 276.380799 37.714527 286.025367 37.714527 286.025367 40.9616216"></polygon>
                    <polygon id="Fill-34" fill="#0F7DC5" mask="url(#mask-4)" points="287.42123 40.9616216 287.42123 21.6921622 301.665 21.6921622 301.665 24.9527162 291.300304 24.9527162 291.300304 29.2238514 300.944872 29.2238514 300.944872 32.4709459 291.300304 32.4709459 291.300304 37.714527 302.031773 37.714527 302.031773 40.9616216"></polygon>
                    <path d="M319.992923,24.9522676 L319.992923,37.7152 L322.889089,37.7152 C323.972636,37.7152 324.754265,37.6535108 325.233978,37.5312541 C325.86353,37.3731054 326.385735,37.1061595 326.800591,36.7292946 C327.215447,36.3524297 327.554265,35.732173 327.815927,34.8696459 C328.077588,34.0059973 328.209537,32.8294162 328.209537,31.3399027 C328.209537,29.8503892 328.077588,28.7074568 327.815927,27.9099838 C327.554265,27.1125108 327.187492,26.4900108 326.715607,26.0436054 C326.243722,25.5960784 325.645479,25.2943622 324.91976,25.1362135 C324.378546,25.0139568 323.317364,24.9522676 321.736214,24.9522676 L319.992923,24.9522676 Z M316.11385,21.6928351 L323.203307,21.6928351 C324.802348,21.6928351 326.021198,21.8150919 326.859856,22.060727 C327.985895,22.3938486 328.952029,22.9849432 329.754904,23.8351324 C330.558898,24.6853216 331.170559,25.7250649 331.589888,26.9566054 C332.009217,28.1881459 332.219441,29.7057 332.219441,31.5115108 C332.219441,33.0974838 332.022636,34.4636189 331.629026,35.6121595 C331.149313,37.0141865 330.462732,38.1492676 329.571518,39.0162811 C328.899473,39.6735514 327.990367,40.1861324 326.846438,40.5540243 C325.989888,40.8254568 324.845958,40.961173 323.41353,40.961173 L316.11385,40.961173 L316.11385,21.6928351 Z" id="Fill-35" fill="#0F7DC5" mask="url(#mask-4)"></path>
                    <polygon id="Fill-36" fill="#0F7DC5" mask="url(#mask-4)" points="334.139744 40.9616216 334.139744 21.6921622 348.383514 21.6921622 348.383514 24.9527162 338.018818 24.9527162 338.018818 29.2238514 347.663387 29.2238514 347.663387 32.4709459 338.018818 32.4709459 338.018818 37.714527 348.750288 37.714527 348.750288 40.9616216"></polygon>
                    <polygon id="Fill-37" fill="#0F7DC5" mask="url(#mask-4)" points="87.9149681 15.3588135 87.9149681 1.7098 97.2430831 1.7098 97.2430831 4.01921892 90.6624121 4.01921892 90.6624121 7.24948919 96.3429233 7.24948919 96.3429233 9.55778649 90.6624121 9.55778649 90.6624121 15.3588135"></polygon>
                    <polygon id="Fill-38" fill="#0F7DC5" mask="url(#mask-4)" points="98.0826358 15.3588135 98.0826358 1.7098 108.172252 1.7098 108.172252 4.01921892 100.83008 4.01921892 100.83008 7.04535405 107.66123 7.04535405 107.66123 9.34467838 100.83008 9.34467838 100.83008 13.0583676 108.431677 13.0583676 108.431677 15.3588135"></polygon>
                    <path d="M112.074473,4.01877027 L112.074473,13.0590405 L114.125272,13.0590405 C114.893482,13.0590405 115.446997,13.0152973 115.786933,12.9289324 C116.233099,12.8178919 116.602109,12.6283378 116.896198,12.3602703 C117.190288,12.0933243 117.430703,11.6547703 117.616326,11.0434865 C117.801949,10.4322027 117.89476,9.59883784 117.89476,8.54339189 C117.89476,7.48906757 117.801949,6.67813514 117.616326,6.11395946 C117.430703,5.54866216 117.17016,5.10898649 116.835815,4.79044595 C116.50147,4.47527027 116.078786,4.26104054 115.564409,4.14887838 C115.180863,4.06251351 114.428307,4.01877027 113.308978,4.01877027 L112.074473,4.01877027 Z M109.327029,1.70935135 L114.348914,1.70935135 C115.480543,1.70935135 116.343802,1.79683784 116.93869,1.97068919 C117.735974,2.20622973 118.420319,2.62571622 118.989489,3.22690541 C119.558658,3.82921622 119.992524,4.56612162 120.28885,5.43874324 C120.586294,6.31024324 120.735016,7.38587838 120.735016,8.66452703 C120.735016,9.78839189 120.59524,10.7563514 120.316805,11.5684054 C119.976869,12.5621622 119.490447,13.3663649 118.859776,13.9810135 C118.383419,14.4464865 117.739329,14.8087703 116.928626,15.0701081 C116.322556,15.2619054 115.511853,15.3583649 114.497636,15.3583649 L109.327029,15.3583649 L109.327029,1.70935135 Z" id="Fill-39" fill="#0F7DC5" mask="url(#mask-4)"></path>
                    <polygon id="Fill-40" fill="#0F7DC5" mask="url(#mask-4)" points="121.638195 15.3588135 121.638195 1.7098 131.727812 1.7098 131.727812 4.01921892 124.385639 4.01921892 124.385639 7.04535405 131.216789 7.04535405 131.216789 9.34467838 124.385639 9.34467838 124.385639 13.0583676 131.987236 13.0583676 131.987236 15.3588135"></polygon>
                    <path d="M135.648594,7.48222568 L137.681502,7.48222568 C138.999872,7.48222568 139.821757,7.42614459 140.150511,7.31510405 C140.478147,7.20294189 140.735335,7.01002297 140.920958,6.73746892 C141.106581,6.46491486 141.199393,6.12282027 141.199393,5.71342838 C141.199393,5.25468514 141.07639,4.88342838 140.83262,4.60077973 C140.587732,4.31813108 140.243323,4.14091486 139.797157,4.06576622 C139.574633,4.03436081 138.907061,4.01865811 137.792204,4.01865811 L135.648594,4.01865811 L135.648594,7.48222568 Z M132.90115,15.3582527 L132.90115,1.71036081 L138.683419,1.71036081 C140.138211,1.71036081 141.19492,1.83261757 141.853546,2.0782527 C142.513291,2.32276622 143.039968,2.75907703 143.435815,3.38606351 C143.831661,4.01192838 144.030703,4.72976622 144.030703,5.53621216 C144.030703,6.56137432 143.729904,7.40707703 143.129425,8.07332027 C142.530064,8.74068514 141.632141,9.16129324 140.437891,9.33402297 C141.031661,9.6828473 141.522556,10.0641986 141.909457,10.4803203 C142.296358,10.8964419 142.817444,11.6344689 143.473834,12.695523 L145.134377,15.3582527 L141.849073,15.3582527 L139.863131,12.3881986 C139.15754,11.3282662 138.674473,10.6586581 138.415048,10.3827392 C138.154505,10.1068203 137.879425,9.91726622 137.58869,9.81407703 C137.297955,9.71200946 136.836134,9.66041486 136.205463,9.66041486 L135.648594,9.66041486 L135.648594,15.3582527 L132.90115,15.3582527 Z" id="Fill-41" fill="#0F7DC5" mask="url(#mask-4)"></path>
                    <path d="M152.40655,9.95876622 L150.53131,4.89352297 L148.694089,9.95876622 L152.40655,9.95876622 Z M157.465335,15.3582527 L154.476358,15.3582527 L153.288818,12.2592122 L147.848722,12.2592122 L146.726038,15.3582527 L143.810863,15.3582527 L149.111182,1.71036081 L152.016294,1.71036081 L157.465335,15.3582527 Z" id="Fill-42" fill="#0F7DC5" mask="url(#mask-4)"></path>
                    <polygon id="Fill-43" fill="#0F7DC5" mask="url(#mask-4)" points="159.149137 15.3588135 159.149137 4.01921892 155.111278 4.01921892 155.111278 1.7098 165.925495 1.7098 165.925495 4.01921892 161.896581 4.01921892 161.896581 15.3588135"></polygon>
                    <polygon id="Fill-44" fill="#0F7DC5" mask="url(#mask-4)" points="166.188498 15.3583649 168.935942 15.3583649 168.935942 1.70935135 166.188498 1.70935135"></polygon>
                    <path d="M172.401613,8.5249973 C172.401613,10.0705919 172.757204,11.2426865 173.469505,12.0401595 C174.180687,12.8376324 175.084201,13.2358081 176.17893,13.2358081 C177.274776,13.2358081 178.173818,12.8409973 178.876054,12.0491324 C179.578291,11.2583892 179.929409,10.0705919 179.929409,8.48798378 C179.929409,6.92332162 179.587236,5.75683514 178.902891,4.9874027 C178.219665,4.21684865 177.311677,3.83213243 176.17893,3.83213243 C175.0473,3.83213243 174.133722,4.22245676 173.44155,5.00086216 C172.748259,5.78038919 172.401613,6.95472703 172.401613,8.5249973 M169.570304,8.61809189 C169.570304,7.2284027 169.778291,6.06079459 170.192029,5.11751081 C170.501773,4.42210541 170.924457,3.79848378 171.458962,3.24664595 C171.994585,2.69368649 172.581645,2.28429459 173.217907,2.01734865 C174.066629,1.65730811 175.043946,1.47672703 176.152093,1.47672703 C178.155927,1.47672703 179.760559,2.10034865 180.963754,3.34871351 C182.168067,4.59595676 182.769665,6.33110541 182.769665,8.55191622 C182.769665,10.7559027 182.17254,12.4798351 180.978291,13.7248351 C179.784042,14.9687135 178.187236,15.5912135 176.188994,15.5912135 C174.165032,15.5912135 172.555927,14.9720784 171.361677,13.7349297 C170.167428,12.4955378 169.570304,10.790673 169.570304,8.61809189" id="Fill-45" fill="#0F7DC5" mask="url(#mask-4)"></path>
                    <polygon id="Fill-46" fill="#0F7DC5" mask="url(#mask-4)" points="183.51607 15.3588135 183.51607 1.7098 186.189712 1.7098 191.758403 10.8240973 191.758403 1.7098 194.311278 1.7098 194.311278 15.3588135 191.55377 15.3588135 186.068946 6.45762432 186.068946 15.3588135"></polygon>
                    <path d="M101.925927,67.8554162 L101.925927,62.4447135 L114.259792,62.4447135 L114.259792,75.2379297 C113.06107,76.5524703 111.324489,77.7099838 109.050048,78.7104703 C106.774489,79.7098351 104.470974,80.2112 102.138387,80.2112 C99.1740096,80.2112 96.5898243,79.5068216 94.3858307,78.0969432 C92.1818371,76.6870649 90.5257668,74.6715108 89.4176198,72.0502811 C88.3094728,69.4290514 87.7548403,66.5767676 87.7548403,63.495673 C87.7548403,60.1521189 88.3732109,57.1798216 89.6110703,54.5799027 C90.8478115,51.9811054 92.6581949,49.9868622 95.0433387,48.5994162 C96.8604313,47.5338757 99.1225719,46.9999838 101.82976,46.9999838 C105.347652,46.9999838 108.096214,47.8367135 110.074329,49.5090514 C112.052444,51.1813892 113.324968,53.4919297 113.893019,56.4417946 L108.209153,57.6464162 C107.808834,56.0694162 107.058514,54.8244162 105.955958,53.9114162 C104.854521,52.9995378 103.479121,52.5430378 101.82976,52.5430378 C99.3283227,52.5430378 97.3401438,53.4403351 95.8652236,55.237173 C94.3891853,57.0340108 93.6511661,59.6989838 93.6511661,63.2332135 C93.6511661,67.0444838 94.3992492,69.9034973 95.8942971,71.8091324 C97.389345,73.7158892 99.3473323,74.6681459 101.770495,74.6681459 C102.970335,74.6681459 104.171294,74.4023216 105.376725,73.8684297 C106.582157,73.3356595 107.615383,72.6896054 108.47976,71.9302676 L108.47976,67.8554162 L101.925927,67.8554162 Z" id="Fill-47" fill="#0F7DC5" mask="url(#mask-4)"></path>
                    <polygon id="Fill-48" fill="#0F7DC5" mask="url(#mask-4)" points="124.01115 79.6630635 124.01115 66.1464014 113.629681 47.5476716 120.337827 47.5476716 127.007955 60.2534014 133.541661 47.5476716 140.134633 47.5476716 129.714026 66.1901446 129.714026 79.6630635"></polygon>
                    <polygon id="Fill-49" fill="#0F7DC5" mask="url(#mask-4)" points="139.929888 79.6630635 139.929888 47.5476716 148.494265 47.5476716 153.636917 69.4540635 158.721422 47.5476716 167.304808 47.5476716 167.304808 79.6630635 161.988834 79.6630635 161.988834 54.3828338 156.363115 79.6630635 150.852572 79.6630635 145.245863 54.3828338 145.245863 79.6630635"></polygon>
                    <polygon id="Fill-50" fill="#0F7DC5" mask="url(#mask-4)" points="170.076741 79.6630635 170.076741 47.5476716 175.644313 47.5476716 187.244633 68.9941986 187.244633 47.5476716 192.560607 47.5476716 192.560607 79.6630635 186.818594 79.6630635 175.392716 58.7201446 175.392716 79.6630635"></polygon>
                    <path d="M210.66377,66.9572216 L206.758978,55.0399919 L202.930224,66.9572216 L210.66377,66.9572216 Z M221.200671,79.6629514 L214.974473,79.6629514 L212.50099,72.3679243 L201.171278,72.3679243 L198.831981,79.6629514 L192.762332,79.6629514 L203.80131,47.5475595 L209.851949,47.5475595 L221.200671,79.6629514 Z" id="Fill-51" fill="#0F7DC5" mask="url(#mask-4)"></path>
                    <path d="M219.815879,69.2135878 L225.38345,68.6000608 C225.718914,70.7176824 226.398786,72.2733716 227.423067,73.2660068 C228.448466,74.2597635 229.830575,74.7555203 231.570511,74.7555203 C233.413323,74.7555203 234.802141,74.314723 235.735847,73.4308851 C236.670671,72.5470473 237.138083,71.5140338 237.138083,70.330723 C237.138083,69.5713851 236.941278,68.9253311 236.547668,68.3925608 C236.155176,67.8586689 235.468594,67.3954392 234.49016,67.0006284 C233.819233,66.7381689 232.291757,66.2704527 229.907732,65.5986014 C226.840479,64.7371959 224.687923,63.6783851 223.450064,62.4221689 C221.710128,60.6556149 220.841278,58.5009797 220.841278,55.9605068 C220.841278,54.3251824 221.249425,52.7941689 222.067955,51.3708311 C222.886486,49.9463716 224.066198,48.8617635 225.605974,48.1170068 C227.145751,47.37225 229.005335,46.9998716 231.18361,46.9998716 C234.740639,46.9998716 237.418754,47.8837095 239.216837,49.6513851 C241.01492,51.4179392 241.957572,53.7767095 242.048147,56.7265743 L236.326262,57.0114662 C236.081374,55.3615608 235.555815,54.1748851 234.750703,53.4514392 C233.944473,52.7291149 232.736805,52.3668311 231.125463,52.3668311 C229.462684,52.3668311 228.161086,52.7549122 227.220671,53.5288311 C226.614601,54.0245878 226.311565,54.6897095 226.311565,55.5219527 C226.311565,56.2812905 226.594473,56.9318311 227.162524,57.4713311 C227.88377,58.1588851 229.637125,58.8733581 232.420351,59.6181149 C235.204696,60.3628716 237.264441,61.1334257 238.597348,61.929777 C239.931374,62.7261284 240.975783,63.8141014 241.729457,65.1936959 C242.483131,66.5732905 242.859968,68.279277 242.859968,70.3094122 C242.859968,72.1488716 242.409329,73.8716824 241.506933,75.4789662 C240.604537,77.08625 239.328658,78.2796554 237.679297,79.0603041 C236.029936,79.8420743 233.973546,80.2323986 231.512364,80.2323986 C227.928498,80.2323986 225.1777,79.2936014 223.257732,77.4171284 C221.336645,75.541777 220.189361,72.8061419 219.815879,69.2135878" id="Fill-52" fill="#0F7DC5" mask="url(#mask-4)"></path>
                    <polygon id="Fill-53" fill="#0F7DC5" mask="url(#mask-4)" points="251.084297 79.6630635 251.084297 52.9808068 242.674233 52.9808068 242.674233 47.5476716 265.197236 47.5476716 265.197236 52.9808068 256.8073 52.9808068 256.8073 79.6630635"></polygon>
                    <polygon id="Fill-54" fill="#0F7DC5" mask="url(#mask-4)" points="266.095048 79.6631757 271.818051 79.6631757 271.818051 47.5477838 266.095048 47.5477838"></polygon>
                    <path d="M292.51155,71.9300432 C293.246214,70.9519892 293.796374,69.7686784 294.164265,68.3812324 C294.532157,66.9937865 294.715543,65.4022054 294.715543,63.6053676 C294.715543,59.8961649 293.993179,57.1246378 292.550687,55.2919081 C291.107077,53.4591784 289.218419,52.5428135 286.885831,52.5428135 C284.552125,52.5428135 282.66123,53.4625432 281.212029,55.3031243 C279.761709,57.1425838 279.037109,59.9107459 279.037109,63.6053676 C279.037109,67.3594351 279.761709,70.1668541 281.212029,72.0287459 C282.66123,73.8906378 284.495096,74.8215838 286.71139,74.8215838 C287.536629,74.8215838 288.316022,74.6679216 289.050687,74.3617189 C287.891102,73.4991919 286.71139,72.8284622 285.512668,72.3461649 L287.1173,68.6436919 C288.999249,69.3749892 290.797332,70.4696919 292.51155,71.9300432 M297.112987,75.588773 C298.51746,76.7272189 300.043818,77.6334892 301.694297,78.3053405 L299.587588,82.8838 C298.723211,82.5910568 297.878962,82.1895162 297.053722,81.6780568 C296.87369,81.5771108 295.604521,80.6270973 293.246214,78.8302595 C291.389984,79.7511108 289.334712,80.2109757 287.079281,80.2109757 C282.722732,80.2109757 279.309952,78.7573541 276.842061,75.8512324 C274.374169,72.9451108 273.139665,68.8635297 273.139665,63.6053676 C273.139665,58.3629081 274.377524,54.2846919 276.852125,51.3707189 C279.326725,48.4567459 282.683594,46.9997595 286.92385,46.9997595 C291.126086,46.9997595 294.457236,48.4567459 296.919537,51.3707189 C299.380719,54.2846919 300.611869,58.3629081 300.611869,63.6053676 C300.611869,66.3802595 300.269696,68.8197865 299.587588,70.922827 C299.070974,72.5289892 298.246853,74.0846784 297.112987,75.588773" id="Fill-55" fill="#0F7DC5" mask="url(#mask-4)"></path>
                    <path d="M302.089473,47.5478959 L307.812476,47.5478959 L307.812476,64.9420041 C307.812476,67.7023149 307.882923,69.4901797 308.024936,70.3089635 C308.268706,71.6235041 308.852412,72.6778284 309.773818,73.4741797 C310.692987,74.2705311 311.953211,74.6687068 313.552252,74.6687068 C315.177013,74.6687068 316.400335,74.2929635 317.225575,73.5403554 C318.050815,72.7877473 318.5473,71.8646527 318.715032,70.7688284 C318.881645,69.6741257 318.966629,67.8548554 318.966629,65.3143824 L318.966629,47.5478959 L324.688514,47.5478959 L324.688514,64.4159635 C324.688514,68.2720986 324.533083,70.9953959 324.223339,72.586977 C323.915831,74.1785581 323.345543,75.5222608 322.513594,76.6180851 C321.681645,77.7139095 320.569026,78.5865311 319.177971,79.23595 C317.786917,79.8853689 315.969824,80.2106392 313.726693,80.2106392 C311.020623,80.2106392 308.968706,79.8573284 307.569824,79.1484635 C306.170942,78.4395986 305.067268,77.5198689 304.255447,76.3881527 C303.442508,75.2564365 302.908003,74.0697608 302.649696,72.8281257 C302.276214,70.9875446 302.089473,68.2720986 302.089473,64.678423 L302.089473,47.5478959 Z" id="Fill-56" fill="#0F7DC5" mask="url(#mask-4)"></path>
                    <polygon id="Fill-57" fill="#0F7DC5" mask="url(#mask-4)" points="327.750511 79.6630635 327.750511 47.5476716 348.765048 47.5476716 348.765048 52.9808068 333.472396 52.9808068 333.472396 60.1008608 347.701629 60.1008608 347.701629 65.5115635 333.472396 65.5115635 333.472396 74.2523608 349.306262 74.2523608 349.306262 79.6630635"></polygon>
                </g>
            </g>
        </g>
    </g>
</svg>